<mxfile host="app.diagrams.net" agent="Mozilla/5.0 (Windows NT 10.0; Win64; x64; rv:131.0) Gecko/20100101 Firefox/131.0" version="24.7.17">
  <diagram name="Side-1" id="0VLNh5OabaCH0Pl5r9p0">
    <mxGraphModel dx="2049" dy="1104" grid="1" gridSize="10" guides="1" tooltips="1" connect="1" arrows="1" fold="1" page="1" pageScale="1" pageWidth="850" pageHeight="1100" math="0" shadow="0">
      <root>
        <mxCell id="0" />
        <mxCell id="1" parent="0" />
        <mxCell id="J-piPuHXOnTbzncTYlCt-4" value="" style="edgeStyle=orthogonalEdgeStyle;rounded=0;orthogonalLoop=1;jettySize=auto;html=1;" edge="1" parent="1" source="J-piPuHXOnTbzncTYlCt-1" target="J-piPuHXOnTbzncTYlCt-3">
          <mxGeometry relative="1" as="geometry" />
        </mxCell>
        <mxCell id="J-piPuHXOnTbzncTYlCt-1" value="START" style="ellipse;whiteSpace=wrap;html=1;fillColor=#d5e8d4;strokeColor=#82b366;" vertex="1" parent="1">
          <mxGeometry x="250" y="20" width="120" height="80" as="geometry" />
        </mxCell>
        <mxCell id="J-piPuHXOnTbzncTYlCt-6" value="" style="edgeStyle=orthogonalEdgeStyle;rounded=0;orthogonalLoop=1;jettySize=auto;html=1;" edge="1" parent="1" source="J-piPuHXOnTbzncTYlCt-3" target="J-piPuHXOnTbzncTYlCt-5">
          <mxGeometry relative="1" as="geometry" />
        </mxCell>
        <mxCell id="J-piPuHXOnTbzncTYlCt-3" value="&lt;div&gt;Forbind til &lt;br&gt;&lt;/div&gt;&lt;div&gt;Wifi&lt;br&gt;&lt;/div&gt;" style="whiteSpace=wrap;html=1;" vertex="1" parent="1">
          <mxGeometry x="250" y="140" width="120" height="60" as="geometry" />
        </mxCell>
        <mxCell id="J-piPuHXOnTbzncTYlCt-10" value="JA" style="edgeStyle=orthogonalEdgeStyle;rounded=0;orthogonalLoop=1;jettySize=auto;html=1;" edge="1" parent="1" source="J-piPuHXOnTbzncTYlCt-5" target="J-piPuHXOnTbzncTYlCt-9">
          <mxGeometry x="-0.6429" relative="1" as="geometry">
            <mxPoint as="offset" />
          </mxGeometry>
        </mxCell>
        <mxCell id="J-piPuHXOnTbzncTYlCt-12" value="" style="edgeStyle=orthogonalEdgeStyle;rounded=0;orthogonalLoop=1;jettySize=auto;html=1;" edge="1" parent="1" source="J-piPuHXOnTbzncTYlCt-5" target="J-piPuHXOnTbzncTYlCt-11">
          <mxGeometry relative="1" as="geometry" />
        </mxCell>
        <mxCell id="J-piPuHXOnTbzncTYlCt-13" value="NEJ" style="edgeLabel;html=1;align=center;verticalAlign=middle;resizable=0;points=[];" vertex="1" connectable="0" parent="J-piPuHXOnTbzncTYlCt-12">
          <mxGeometry x="-0.531" y="3" relative="1" as="geometry">
            <mxPoint as="offset" />
          </mxGeometry>
        </mxCell>
        <mxCell id="J-piPuHXOnTbzncTYlCt-5" value="&lt;div&gt;Er&lt;/div&gt;&lt;div&gt;wifi&lt;/div&gt;&lt;div&gt;forbundet?&lt;br&gt;&lt;/div&gt;" style="rhombus;whiteSpace=wrap;html=1;" vertex="1" parent="1">
          <mxGeometry x="245" y="230" width="130" height="110" as="geometry" />
        </mxCell>
        <mxCell id="J-piPuHXOnTbzncTYlCt-37" value="" style="edgeStyle=orthogonalEdgeStyle;rounded=0;orthogonalLoop=1;jettySize=auto;html=1;" edge="1" parent="1" source="J-piPuHXOnTbzncTYlCt-9" target="J-piPuHXOnTbzncTYlCt-36">
          <mxGeometry relative="1" as="geometry" />
        </mxCell>
        <mxCell id="J-piPuHXOnTbzncTYlCt-9" value="&lt;div&gt;Forbind til&lt;/div&gt;&lt;div&gt;Thingsboard&lt;br&gt;&lt;/div&gt;" style="whiteSpace=wrap;html=1;" vertex="1" parent="1">
          <mxGeometry x="120" y="360" width="120" height="60" as="geometry" />
        </mxCell>
        <mxCell id="J-piPuHXOnTbzncTYlCt-16" value="" style="edgeStyle=orthogonalEdgeStyle;rounded=0;orthogonalLoop=1;jettySize=auto;html=1;" edge="1" parent="1" source="J-piPuHXOnTbzncTYlCt-11" target="J-piPuHXOnTbzncTYlCt-15">
          <mxGeometry relative="1" as="geometry" />
        </mxCell>
        <mxCell id="J-piPuHXOnTbzncTYlCt-11" value="&lt;div&gt;Inkrementer&lt;/div&gt;&lt;div&gt;forsøg med 1&lt;br&gt;&lt;/div&gt;" style="whiteSpace=wrap;html=1;" vertex="1" parent="1">
          <mxGeometry x="380" y="360" width="120" height="60" as="geometry" />
        </mxCell>
        <mxCell id="J-piPuHXOnTbzncTYlCt-17" style="edgeStyle=orthogonalEdgeStyle;rounded=0;orthogonalLoop=1;jettySize=auto;html=1;exitX=0;exitY=0.5;exitDx=0;exitDy=0;" edge="1" parent="1" source="J-piPuHXOnTbzncTYlCt-15">
          <mxGeometry relative="1" as="geometry">
            <mxPoint x="180" y="320" as="targetPoint" />
            <Array as="points">
              <mxPoint x="270" y="490" />
              <mxPoint x="270" y="320" />
            </Array>
          </mxGeometry>
        </mxCell>
        <mxCell id="J-piPuHXOnTbzncTYlCt-18" value="JA" style="edgeLabel;html=1;align=center;verticalAlign=middle;resizable=0;points=[];" vertex="1" connectable="0" parent="J-piPuHXOnTbzncTYlCt-17">
          <mxGeometry x="-0.6641" y="-2" relative="1" as="geometry">
            <mxPoint as="offset" />
          </mxGeometry>
        </mxCell>
        <mxCell id="J-piPuHXOnTbzncTYlCt-19" style="edgeStyle=orthogonalEdgeStyle;rounded=0;orthogonalLoop=1;jettySize=auto;html=1;exitX=1;exitY=0.5;exitDx=0;exitDy=0;" edge="1" parent="1" source="J-piPuHXOnTbzncTYlCt-15">
          <mxGeometry relative="1" as="geometry">
            <mxPoint x="310" y="210" as="targetPoint" />
            <Array as="points">
              <mxPoint x="530" y="490" />
              <mxPoint x="530" y="210" />
            </Array>
          </mxGeometry>
        </mxCell>
        <mxCell id="J-piPuHXOnTbzncTYlCt-20" value="NEJ" style="edgeLabel;html=1;align=center;verticalAlign=middle;resizable=0;points=[];" vertex="1" connectable="0" parent="J-piPuHXOnTbzncTYlCt-19">
          <mxGeometry x="-0.9321" y="1" relative="1" as="geometry">
            <mxPoint as="offset" />
          </mxGeometry>
        </mxCell>
        <mxCell id="J-piPuHXOnTbzncTYlCt-15" value="&lt;div&gt;Er der brugt&lt;/div&gt;&lt;div&gt;10 forsøg&lt;br&gt;&lt;/div&gt;" style="rhombus;whiteSpace=wrap;html=1;" vertex="1" parent="1">
          <mxGeometry x="400" y="450" width="80" height="80" as="geometry" />
        </mxCell>
        <mxCell id="J-piPuHXOnTbzncTYlCt-26" value="" style="edgeStyle=orthogonalEdgeStyle;rounded=0;orthogonalLoop=1;jettySize=auto;html=1;" edge="1" parent="1" source="J-piPuHXOnTbzncTYlCt-21" target="J-piPuHXOnTbzncTYlCt-25">
          <mxGeometry relative="1" as="geometry" />
        </mxCell>
        <mxCell id="J-piPuHXOnTbzncTYlCt-21" value="Aflæs IMU" style="shape=parallelogram;perimeter=parallelogramPerimeter;whiteSpace=wrap;html=1;fixedSize=1;" vertex="1" parent="1">
          <mxGeometry x="120" y="595" width="120" height="60" as="geometry" />
        </mxCell>
        <mxCell id="J-piPuHXOnTbzncTYlCt-25" value="&lt;div&gt;Send IMU&lt;/div&gt;&lt;div&gt;acceleration&lt;/div&gt;&lt;div&gt;XYZ og&lt;/div&gt;&lt;div&gt;temperatur til&amp;nbsp;&lt;/div&gt;&lt;div&gt;thingsboard&lt;br&gt;&lt;/div&gt;" style="shape=parallelogram;perimeter=parallelogramPerimeter;whiteSpace=wrap;html=1;fixedSize=1;" vertex="1" parent="1">
          <mxGeometry x="120" y="685" width="120" height="110" as="geometry" />
        </mxCell>
        <mxCell id="J-piPuHXOnTbzncTYlCt-41" style="edgeStyle=orthogonalEdgeStyle;rounded=0;orthogonalLoop=1;jettySize=auto;html=1;exitX=0;exitY=0.5;exitDx=0;exitDy=0;exitPerimeter=0;" edge="1" parent="1" source="J-piPuHXOnTbzncTYlCt-29">
          <mxGeometry relative="1" as="geometry">
            <mxPoint x="180" y="440" as="targetPoint" />
            <Array as="points">
              <mxPoint x="70" y="865" />
              <mxPoint x="70" y="440" />
            </Array>
          </mxGeometry>
        </mxCell>
        <mxCell id="J-piPuHXOnTbzncTYlCt-29" value="&lt;div&gt;vent 5 &lt;br&gt;&lt;/div&gt;&lt;div&gt;sekunder&lt;br&gt;&lt;/div&gt;" style="strokeWidth=2;html=1;shape=mxgraph.flowchart.delay;whiteSpace=wrap;" vertex="1" parent="1">
          <mxGeometry x="130" y="835" width="100" height="60" as="geometry" />
        </mxCell>
        <mxCell id="J-piPuHXOnTbzncTYlCt-30" style="edgeStyle=orthogonalEdgeStyle;rounded=0;orthogonalLoop=1;jettySize=auto;html=1;exitX=0.5;exitY=1;exitDx=0;exitDy=0;entryX=0.5;entryY=0;entryDx=0;entryDy=0;entryPerimeter=0;" edge="1" parent="1" source="J-piPuHXOnTbzncTYlCt-25" target="J-piPuHXOnTbzncTYlCt-29">
          <mxGeometry relative="1" as="geometry" />
        </mxCell>
        <mxCell id="J-piPuHXOnTbzncTYlCt-39" style="edgeStyle=orthogonalEdgeStyle;rounded=0;orthogonalLoop=1;jettySize=auto;html=1;exitX=1;exitY=0.5;exitDx=0;exitDy=0;" edge="1" parent="1" source="J-piPuHXOnTbzncTYlCt-36">
          <mxGeometry relative="1" as="geometry">
            <mxPoint x="390" y="665" as="targetPoint" />
            <Array as="points">
              <mxPoint x="240" y="575" />
              <mxPoint x="390" y="575" />
              <mxPoint x="390" y="665" />
            </Array>
          </mxGeometry>
        </mxCell>
        <mxCell id="J-piPuHXOnTbzncTYlCt-36" value="&lt;div&gt;skal programmet&lt;/div&gt;&lt;div&gt;stoppes?&lt;br&gt;&lt;/div&gt;" style="rhombus;whiteSpace=wrap;html=1;" vertex="1" parent="1">
          <mxGeometry x="120" y="470" width="120" height="110" as="geometry" />
        </mxCell>
        <mxCell id="J-piPuHXOnTbzncTYlCt-38" value="NEJ" style="edgeStyle=orthogonalEdgeStyle;rounded=0;orthogonalLoop=1;jettySize=auto;html=1;exitX=0;exitY=0.5;exitDx=0;exitDy=0;entryX=0.085;entryY=0.612;entryDx=0;entryDy=0;entryPerimeter=0;" edge="1" parent="1" source="J-piPuHXOnTbzncTYlCt-36" target="J-piPuHXOnTbzncTYlCt-21">
          <mxGeometry relative="1" as="geometry">
            <Array as="points">
              <mxPoint x="100" y="525" />
              <mxPoint x="100" y="632" />
            </Array>
          </mxGeometry>
        </mxCell>
        <mxCell id="J-piPuHXOnTbzncTYlCt-40" value="STOP" style="ellipse;whiteSpace=wrap;html=1;fillColor=#f8cecc;strokeColor=#b85450;" vertex="1" parent="1">
          <mxGeometry x="330" y="665" width="120" height="80" as="geometry" />
        </mxCell>
      </root>
    </mxGraphModel>
  </diagram>
</mxfile>
